<svg width="24" height="24" viewBox="0 0 24 24" fill="none" xmlns="http://www.w3.org/2000/svg">
<path d="M16.8998 17.3001L12.2998 12.7001C12.1998 12.6001 12.1291 12.4917 12.0878 12.3751C12.0458 12.2584 12.0248 12.1334 12.0248 12.0001C12.0248 11.8667 12.0458 11.7417 12.0878 11.6251C12.1291 11.5084 12.1998 11.4001 12.2998 11.3001L16.8998 6.70008C17.0831 6.51675 17.3121 6.42075 17.5868 6.41208C17.8621 6.40408 18.0998 6.50008 18.2998 6.70008C18.4831 6.88342 18.5748 7.11675 18.5748 7.40008C18.5748 7.68342 18.4831 7.91675 18.2998 8.10008L14.4248 12.0001L18.2998 15.9001C18.4831 16.0834 18.5788 16.3124 18.5868 16.5871C18.5955 16.8624 18.4998 17.1001 18.2998 17.3001C18.1165 17.4834 17.8831 17.5751 17.5998 17.5751C17.3165 17.5751 17.0831 17.4834 16.8998 17.3001V17.3001ZM10.2998 17.3001L5.6998 12.7001C5.5998 12.6001 5.52914 12.4917 5.4878 12.3751C5.4458 12.2584 5.4248 12.1334 5.4248 12.0001C5.4248 11.8667 5.4458 11.7417 5.4878 11.6251C5.52914 11.5084 5.5998 11.4001 5.6998 11.3001L10.2998 6.70008C10.4831 6.51675 10.7125 6.42075 10.9878 6.41208C11.2625 6.40408 11.4998 6.50008 11.6998 6.70008C11.8831 6.88342 11.9748 7.11675 11.9748 7.40008C11.9748 7.68342 11.8831 7.91675 11.6998 8.10008L7.8248 12.0001L11.6998 15.9001C11.8831 16.0834 11.9791 16.3124 11.9878 16.5871C11.9958 16.8624 11.8998 17.1001 11.6998 17.3001C11.5165 17.4834 11.2831 17.5751 10.9998 17.5751C10.7165 17.5751 10.4831 17.4834 10.2998 17.3001V17.3001Z" fill="#888888"/>
</svg>
