<svg width="80" height="64" viewBox="0 0 80 64" fill="none" xmlns="http://www.w3.org/2000/svg">
<path d="M47.625 14.3626L23.2625 5.2251C21.175 4.4501 18.8625 4.5626 16.875 5.5626L11.1375 8.4251C9.75 9.1251 9.65 11.0626 10.95 11.9001L29.3125 23.7126L17 30.0001L9.725 26.7626C8.6375 26.2751 7.375 26.3001 6.3125 26.8376L2.2875 28.8501C1.125 29.4376 0.8125 30.9501 1.6625 31.9376L10.8 42.6001C11.5625 43.4876 12.675 44.0001 13.8375 44.0001H31.05C31.675 44.0001 32.2875 43.8501 32.8375 43.5751L66.95 26.5251C72.7625 23.6126 77.2625 18.6126 79.55 12.5251C80.7375 9.3751 78.4 6.0001 75.025 6.0001H67.85C65.325 6.0001 62.825 6.6001 60.575 7.7501L47.625 14.3626ZM0 60.0001C0 62.2126 1.7875 64.0001 4 64.0001H76C78.2125 64.0001 80 62.2126 80 60.0001C80 57.7876 78.2125 56.0001 76 56.0001H4C1.7875 56.0001 0 57.7876 0 60.0001Z" fill="#888888"/>
</svg>
