<svg width="64" height="64" viewBox="0 0 64 64" fill="none" xmlns="http://www.w3.org/2000/svg">
<path opacity="0.5" d="M31.9997 5.33325C26.7255 5.33325 21.5698 6.89722 17.1845 9.8274C12.7992 12.7576 9.38124 16.9223 7.3629 21.795C5.34456 26.6677 4.81647 32.0295 5.84541 37.2023C6.87435 42.3752 9.41411 47.1267 13.1435 50.8561C16.8729 54.5855 21.6245 57.1253 26.7973 58.1542C31.9701 59.1831 37.3319 58.655 42.2046 56.6367C47.0773 54.6184 51.242 51.2004 54.1722 46.8151C57.1024 42.4298 58.6664 37.2741 58.6664 31.9999C58.6664 28.498 57.9766 25.0304 56.6365 21.795C55.2964 18.5597 53.3321 15.62 50.8559 13.1437C48.3796 10.6675 45.4399 8.70326 42.2046 7.36313C38.9692 6.02301 35.5016 5.33325 31.9997 5.33325V5.33325ZM31.9997 53.3332C27.7804 53.3332 23.6558 52.0821 20.1475 49.7379C16.6393 47.3938 13.9049 44.062 12.2903 40.1638C10.6756 36.2657 10.2531 31.9763 11.0763 27.838C11.8994 23.6997 13.9312 19.8985 16.9147 16.915C19.8983 13.9315 23.6995 11.8997 27.8378 11.0765C31.976 10.2533 36.2654 10.6758 40.1636 12.2905C44.0618 13.9052 47.3936 16.6395 49.7377 20.1478C52.0818 23.656 53.333 27.7806 53.333 31.9999C53.333 37.6579 51.0854 43.0841 47.0846 47.0849C43.0839 51.0856 37.6576 53.3332 31.9997 53.3332V53.3332Z" fill="#888888"/>
<path d="M53.3333 31.9999H58.6667C58.6667 28.498 57.9769 25.0304 56.6368 21.795C55.2967 18.5597 53.3324 15.62 50.8562 13.1437C48.38 10.6675 45.4402 8.70326 42.2049 7.36313C38.9695 6.02301 35.5019 5.33325 32 5.33325V10.6666C37.658 10.6666 43.0842 12.9142 47.0849 16.915C51.0857 20.9157 53.3333 26.342 53.3333 31.9999Z" fill="#888888"/>
</svg>
