<svg width="60" height="60" viewBox="0 0 60 60" fill="none" xmlns="http://www.w3.org/2000/svg">
<path d="M54.7262 5.29689C54.2403 4.80545 53.6616 4.41559 53.0236 4.15002C52.3856 3.88445 51.7012 3.74847 51.0102 3.75001H36.6043C35.6593 3.75177 34.7531 4.12612 34.0824 4.79181L5.28359 33.5848C4.30092 34.5695 3.74902 35.9038 3.74902 37.2949C3.74902 38.6861 4.30092 40.0204 5.28359 41.0051L18.9945 54.716C19.9795 55.6991 21.3142 56.2513 22.7059 56.2513C24.0975 56.2513 25.4322 55.6991 26.4172 54.716L55.2043 25.9348C55.8713 25.2651 56.247 24.3592 56.2496 23.4141V9.00001C56.2539 8.31259 56.1214 7.63118 55.8598 6.99543C55.5983 6.35969 55.2129 5.78231 54.7262 5.29689V5.29689ZM44.9996 18.75C44.2579 18.75 43.5329 18.5301 42.9162 18.118C42.2995 17.706 41.8189 17.1203 41.5351 16.4351C41.2512 15.7499 41.177 14.9959 41.3217 14.2684C41.4664 13.541 41.8235 12.8728 42.348 12.3484C42.8724 11.8239 43.5406 11.4668 44.268 11.3221C44.9954 11.1774 45.7494 11.2516 46.4347 11.5355C47.1199 11.8193 47.7056 12.2999 48.1176 12.9166C48.5297 13.5333 48.7496 14.2583 48.7496 15C48.7496 15.9946 48.3545 16.9484 47.6513 17.6517C46.948 18.3549 45.9942 18.75 44.9996 18.75Z" fill="#888888"/>
</svg>
