<svg width="80" height="64" viewBox="0 0 80 64" fill="none" xmlns="http://www.w3.org/2000/svg">
<path d="M32.375 14.3626L56.7375 5.2251C58.825 4.4501 61.1375 4.5626 63.125 5.5626L68.8625 8.4251C70.25 9.1251 70.35 11.0626 69.05 11.9001L50.6875 23.7126L63 30.0001L70.275 26.7626C71.3625 26.2751 72.625 26.3001 73.6875 26.8376L77.7125 28.8501C78.875 29.4376 79.1875 30.9501 78.3375 31.9376L69.2 42.6001C68.4375 43.4876 67.325 44.0001 66.1625 44.0001H48.95C48.325 44.0001 47.7125 43.8501 47.1625 43.5751L13.05 26.5251C7.2375 23.6126 2.7375 18.6126 0.449997 12.5251C-0.737503 9.3751 1.6 6.0001 4.975 6.0001H12.15C14.675 6.0001 17.175 6.6001 19.425 7.7501L32.375 14.3626ZM80 60.0001C80 62.2126 78.2125 64.0001 76 64.0001H4C1.7875 64.0001 0 62.2126 0 60.0001C0 57.7876 1.7875 56.0001 4 56.0001H76C78.2125 56.0001 80 57.7876 80 60.0001Z" fill="#888888"/>
</svg>
