<svg width="256" height="256" viewBox="0 0 256 256" fill="none" xmlns="http://www.w3.org/2000/svg">
<path d="M50.2999 194.3C48.7977 195.817 47.9549 197.865 47.9549 200C47.9549 202.135 48.7977 204.183 50.2999 205.7C51.829 207.178 53.8729 208.005 55.9999 208.005C58.127 208.005 60.1708 207.178 61.6999 205.7L128 139.3L194.3 205.7C195.829 207.178 197.873 208.005 200 208.005C202.127 208.005 204.171 207.178 205.7 205.7C207.202 204.183 208.045 202.135 208.045 200C208.045 197.865 207.202 195.817 205.7 194.3L139.3 128L205.7 61.6999C206.976 60.1456 207.628 58.1723 207.529 56.1638C207.43 54.1554 206.588 52.2555 205.166 50.8336C203.744 49.4117 201.844 48.5696 199.836 48.4709C197.828 48.3723 195.854 49.0242 194.3 50.2999L128 116.7L61.6999 50.2999C60.1456 49.0242 58.1723 48.3723 56.1638 48.4709C54.1554 48.5696 52.2555 49.4117 50.8336 50.8336C49.4117 52.2555 48.5696 54.1554 48.4709 56.1638C48.3723 58.1723 49.0242 60.1456 50.2999 61.6999L116.7 128L50.2999 194.3Z" fill="#888888"/>
</svg>
